<?xml version="1.0"?>
<svg xmlns="http://www.w3.org/2000/svg" xmlnsXlink="http://www.w3.org/1999/xlink" xmlnssvgjs="http://svgjs.com/svgjs" version="1.1" width="512" height="512" x="0" y="0" viewBox="0 0 97.848 97.848" style="enable-background:new 0 0 512 512" xmlSpace="preserve" class=""><g>
<g xmlns="http://www.w3.org/2000/svg">
	<g>
		<rect y="70.818" width="17.838" height="5.406" fill="#ffffff" data-original="#000000" style="" class=""/>
		<rect y="63.791" width="17.838" height="5.408" fill="#ffffff" data-original="#000000" style="" class=""/>
		<rect y="56.764" width="17.838" height="5.408" fill="#ffffff" data-original="#000000" style="" class=""/>
		<rect y="49.736" width="17.838" height="5.405" fill="#ffffff" data-original="#000000" style="" class=""/>
		<rect y="42.709" width="17.838" height="5.404" fill="#ffffff" data-original="#000000" style="" class=""/>
		<rect x="20.001" y="70.818" width="17.84" height="5.406" fill="#ffffff" data-original="#000000" style="" class=""/>
		<rect x="20.001" y="63.791" width="17.84" height="5.408" fill="#ffffff" data-original="#000000" style="" class=""/>
		<rect x="20.001" y="56.764" width="17.84" height="5.408" fill="#ffffff" data-original="#000000" style="" class=""/>
		<rect x="40.004" y="70.818" width="17.84" height="5.406" fill="#ffffff" data-original="#000000" style="" class=""/>
		<rect x="40.004" y="63.791" width="17.84" height="5.408" fill="#ffffff" data-original="#000000" style="" class=""/>
		<rect x="40.004" y="56.764" width="17.84" height="5.408" fill="#ffffff" data-original="#000000" style="" class=""/>
		<rect x="40.004" y="49.736" width="17.84" height="5.405" fill="#ffffff" data-original="#000000" style="" class=""/>
		<rect x="40.004" y="42.709" width="17.84" height="5.404" fill="#ffffff" data-original="#000000" style="" class=""/>
		<rect x="40.004" y="35.68" width="17.84" height="5.406" fill="#ffffff" data-original="#000000" style="" class=""/>
		<rect x="40.004" y="28.653" width="17.84" height="5.407" fill="#ffffff" data-original="#000000" style="" class=""/>
		<rect x="60.005" y="70.818" width="17.841" height="5.406" fill="#ffffff" data-original="#000000" style="" class=""/>
		<rect x="60.005" y="63.791" width="17.841" height="5.408" fill="#ffffff" data-original="#000000" style="" class=""/>
		<rect x="60.005" y="56.764" width="17.841" height="5.408" fill="#ffffff" data-original="#000000" style="" class=""/>
		<rect x="60.005" y="49.736" width="17.841" height="5.405" fill="#ffffff" data-original="#000000" style="" class=""/>
		<rect x="60.005" y="42.709" width="17.841" height="5.404" fill="#ffffff" data-original="#000000" style="" class=""/>
		<rect x="80.008" y="70.818" width="17.84" height="5.406" fill="#ffffff" data-original="#000000" style="" class=""/>
		<rect x="80.008" y="63.791" width="17.84" height="5.408" fill="#ffffff" data-original="#000000" style="" class=""/>
		<rect x="80.008" y="56.762" width="17.84" height="5.406" fill="#ffffff" data-original="#000000" style="" class=""/>
		<rect x="80.008" y="49.736" width="17.84" height="5.406" fill="#ffffff" data-original="#000000" style="" class=""/>
		<rect x="80.008" y="42.707" width="17.84" height="5.407" fill="#ffffff" data-original="#000000" style="" class=""/>
		<rect x="80.008" y="35.681" width="17.84" height="5.404" fill="#ffffff" data-original="#000000" style="" class=""/>
		<rect x="80.008" y="28.652" width="17.84" height="5.404" fill="#ffffff" data-original="#000000" style="" class=""/>
		<rect x="80.008" y="21.623" width="17.84" height="5.406" fill="#ffffff" data-original="#000000" style="" class=""/>
	</g>
</g>
<g xmlns="http://www.w3.org/2000/svg">
</g>
<g xmlns="http://www.w3.org/2000/svg">
</g>
<g xmlns="http://www.w3.org/2000/svg">
</g>
<g xmlns="http://www.w3.org/2000/svg">
</g>
<g xmlns="http://www.w3.org/2000/svg">
</g>
<g xmlns="http://www.w3.org/2000/svg">
</g>
<g xmlns="http://www.w3.org/2000/svg">
</g>
<g xmlns="http://www.w3.org/2000/svg">
</g>
<g xmlns="http://www.w3.org/2000/svg">
</g>
<g xmlns="http://www.w3.org/2000/svg">
</g>
<g xmlns="http://www.w3.org/2000/svg">
</g>
<g xmlns="http://www.w3.org/2000/svg">
</g>
<g xmlns="http://www.w3.org/2000/svg">
</g>
<g xmlns="http://www.w3.org/2000/svg">
</g>
<g xmlns="http://www.w3.org/2000/svg">
</g>
</g></svg>
